<svg xmlns="http://www.w3.org/2000/svg" xmlns:xlink="http://www.w3.org/1999/xlink" width="500" zoomAndPan="magnify" viewBox="0 0 375 374.999991" height="500" preserveAspectRatio="xMidYMid meet" version="1.0"><defs><g/><clipPath id="2b64aa3f8f"><path d="M 42.210938 160.660156 L 108.210938 160.660156 L 108.210938 236.902344 L 42.210938 236.902344 Z M 42.210938 160.660156 " clip-rule="nonzero"/></clipPath><clipPath id="455161fc71"><path d="M 42.210938 169 L 108.210938 169 L 108.210938 228.4375 L 42.210938 228.4375 Z M 42.210938 169 " clip-rule="nonzero"/></clipPath><clipPath id="1e9f974b65"><path d="M 42.210938 160.660156 L 108.210938 160.660156 L 108.210938 236.902344 L 42.210938 236.902344 Z M 42.210938 160.660156 " clip-rule="nonzero"/></clipPath></defs><g clip-path="url(#2b64aa3f8f)"><path fill="#ffffff" d="M 75.296875 236.902344 L 75.296875 232.671875 L 42.210938 211.589844 L 42.210938 215.820312 Z M 75.296875 207.167969 L 75.296875 211.425781 L 88.394531 203.070312 L 85.074219 200.953125 Z M 75.351562 160.660156 L 75.351562 164.894531 L 108.433594 185.976562 L 108.433594 181.746094 Z M 75.351562 190.398438 L 75.351562 186.140625 L 62.222656 194.496094 L 65.570312 196.613281 L 75.351562 190.398438 " fill-opacity="1" fill-rule="nonzero"/></g><g clip-path="url(#455161fc71)"><path fill="#ffffff" d="M 75.296875 228.410156 L 75.296875 224.152344 L 42.210938 203.070312 L 42.210938 207.328125 Z M 75.296875 219.917969 L 95.066406 207.300781 L 91.746094 205.183594 L 75.296875 215.6875 Z M 75.351562 169.152344 L 75.351562 173.414062 L 108.433594 194.496094 L 108.433594 190.238281 Z M 75.351562 177.644531 L 55.554688 190.265625 L 58.902344 192.378906 L 75.351562 181.878906 L 75.351562 177.644531 " fill-opacity="1" fill-rule="nonzero"/><path fill="#ffffff" d="M 75.296875 219.917969 L 75.296875 215.660156 L 42.210938 194.578125 L 42.210938 198.835938 Z M 75.296875 228.410156 L 101.765625 211.5625 L 98.414062 209.417969 L 75.296875 224.179688 Z M 75.351562 177.644531 L 75.351562 181.90625 L 108.433594 202.988281 L 108.433594 198.730469 Z M 75.351562 169.152344 L 48.882812 186.003906 L 52.203125 188.148438 L 75.351562 173.386719 L 75.351562 169.152344 " fill-opacity="1" fill-rule="nonzero"/></g><g clip-path="url(#1e9f974b65)"><path fill="#ffffff" d="M 75.296875 211.425781 L 75.296875 207.167969 L 42.210938 186.085938 L 42.210938 190.34375 Z M 75.296875 236.902344 L 108.433594 215.792969 L 105.085938 213.675781 L 75.296875 232.671875 Z M 75.351562 186.140625 L 75.351562 190.398438 L 108.433594 211.480469 L 108.433594 207.222656 Z M 75.351562 160.660156 L 42.210938 181.773438 L 45.535156 183.886719 L 75.351562 164.894531 L 75.351562 160.660156 " fill-opacity="1" fill-rule="nonzero"/></g><g fill="#ffffff" fill-opacity="1"><g transform="translate(123.232043, 213.116499)"><g><path d="M 16.984375 -28.921875 C 18.859375 -28.921875 20.394531 -28.664062 21.59375 -28.15625 C 22.789062 -27.65625 23.847656 -27.046875 24.765625 -26.328125 C 25.054688 -26.078125 25.320312 -25.953125 25.5625 -25.953125 C 26.070312 -25.953125 26.40625 -26.753906 26.5625 -28.359375 L 27.484375 -28.359375 C 27.429688 -27.296875 27.390625 -25.992188 27.359375 -24.453125 C 27.335938 -22.921875 27.328125 -20.882812 27.328125 -18.34375 L 26.40625 -18.34375 C 26.21875 -20.269531 25.890625 -21.878906 25.421875 -23.171875 C 24.953125 -24.472656 24.050781 -25.578125 22.71875 -26.484375 C 22.15625 -26.859375 21.5 -27.148438 20.75 -27.359375 C 20 -27.578125 19.28125 -27.6875 18.59375 -27.6875 C 17.039062 -27.6875 15.753906 -27.265625 14.734375 -26.421875 C 13.722656 -25.578125 12.914062 -24.476562 12.3125 -23.125 C 11.71875 -21.78125 11.289062 -20.3125 11.03125 -18.71875 C 10.78125 -17.132812 10.65625 -15.597656 10.65625 -14.109375 C 10.65625 -9.296875 11.242188 -5.78125 12.421875 -3.5625 C 13.597656 -1.34375 15.160156 -0.234375 17.109375 -0.234375 C 17.535156 -0.234375 17.90625 -0.273438 18.21875 -0.359375 C 18.539062 -0.441406 18.820312 -0.5625 19.0625 -0.71875 C 19.363281 -0.9375 19.578125 -1.203125 19.703125 -1.515625 C 19.835938 -1.835938 19.90625 -2.238281 19.90625 -2.71875 L 19.90625 -6.734375 C 19.90625 -8.035156 19.804688 -9.003906 19.609375 -9.640625 C 19.410156 -10.285156 19.015625 -10.726562 18.421875 -10.96875 C 17.835938 -11.21875 16.984375 -11.351562 15.859375 -11.375 L 15.859375 -12.171875 C 16.472656 -12.148438 17.222656 -12.128906 18.109375 -12.109375 C 18.992188 -12.097656 19.914062 -12.085938 20.875 -12.078125 C 21.832031 -12.066406 22.710938 -12.0625 23.515625 -12.0625 C 24.796875 -12.0625 25.976562 -12.070312 27.0625 -12.09375 C 28.144531 -12.125 29.019531 -12.148438 29.6875 -12.171875 L 29.6875 -11.375 C 29.226562 -11.351562 28.878906 -11.257812 28.640625 -11.09375 C 28.398438 -10.9375 28.238281 -10.617188 28.15625 -10.140625 C 28.082031 -9.660156 28.046875 -8.925781 28.046875 -7.9375 L 28.046875 0 L 27.25 0 C 27.21875 -0.457031 27.109375 -0.953125 26.921875 -1.484375 C 26.734375 -2.015625 26.425781 -2.28125 26 -2.28125 C 25.789062 -2.28125 25.488281 -2.226562 25.09375 -2.125 C 24.707031 -2.019531 24.101562 -1.765625 23.28125 -1.359375 C 22.238281 -0.847656 21.132812 -0.398438 19.96875 -0.015625 C 18.8125 0.367188 17.65625 0.5625 16.5 0.5625 C 13.164062 0.5625 10.375 -0.0078125 8.125 -1.15625 C 5.882812 -2.3125 4.207031 -3.96875 3.09375 -6.125 C 1.988281 -8.289062 1.4375 -10.894531 1.4375 -13.9375 C 1.4375 -16.925781 2.097656 -19.539062 3.421875 -21.78125 C 4.742188 -24.03125 6.570312 -25.78125 8.90625 -27.03125 C 11.25 -28.289062 13.941406 -28.921875 16.984375 -28.921875 Z M 16.984375 -28.921875 "/></g></g></g><g fill="#ffffff" fill-opacity="1"><g transform="translate(154.514843, 213.116499)"><g><path d="M 1.125 -28.359375 C 1.894531 -28.335938 2.914062 -28.3125 4.1875 -28.28125 C 5.457031 -28.257812 6.734375 -28.25 8.015625 -28.25 C 9.347656 -28.25 10.628906 -28.257812 11.859375 -28.28125 C 13.085938 -28.3125 13.957031 -28.328125 14.46875 -28.328125 C 17.1875 -28.328125 19.429688 -28.070312 21.203125 -27.5625 C 22.984375 -27.050781 24.3125 -26.28125 25.1875 -25.25 C 26.070312 -24.226562 26.515625 -22.929688 26.515625 -21.359375 C 26.515625 -20.367188 26.3125 -19.40625 25.90625 -18.46875 C 25.507812 -17.53125 24.832031 -16.679688 23.875 -15.921875 C 22.914062 -15.160156 21.597656 -14.5625 19.921875 -14.125 C 18.253906 -13.6875 16.140625 -13.46875 13.578125 -13.46875 L 9.734375 -13.46875 L 9.734375 -14.265625 L 13.1875 -14.265625 C 14.539062 -14.265625 15.570312 -14.5625 16.28125 -15.15625 C 16.988281 -15.757812 17.46875 -16.5625 17.71875 -17.5625 C 17.976562 -18.5625 18.109375 -19.675781 18.109375 -20.90625 C 18.109375 -23.019531 17.820312 -24.65625 17.25 -25.8125 C 16.675781 -26.976562 15.679688 -27.5625 14.265625 -27.5625 C 13.359375 -27.5625 12.769531 -27.332031 12.5 -26.875 C 12.226562 -26.425781 12.09375 -25.507812 12.09375 -24.125 L 12.09375 -4.25 C 12.09375 -3.28125 12.164062 -2.554688 12.3125 -2.078125 C 12.46875 -1.597656 12.742188 -1.273438 13.140625 -1.109375 C 13.535156 -0.953125 14.132812 -0.847656 14.9375 -0.796875 L 14.9375 0 C 14.164062 -0.0507812 13.171875 -0.0820312 11.953125 -0.09375 C 10.742188 -0.113281 9.507812 -0.125 8.25 -0.125 C 6.8125 -0.125 5.457031 -0.113281 4.1875 -0.09375 C 2.914062 -0.0820312 1.894531 -0.0507812 1.125 0 L 1.125 -0.796875 C 1.945312 -0.847656 2.554688 -0.953125 2.953125 -1.109375 C 3.359375 -1.273438 3.628906 -1.597656 3.765625 -2.078125 C 3.898438 -2.554688 3.96875 -3.28125 3.96875 -4.25 L 3.96875 -24.125 C 3.96875 -25.101562 3.898438 -25.828125 3.765625 -26.296875 C 3.628906 -26.765625 3.351562 -27.082031 2.9375 -27.25 C 2.53125 -27.425781 1.925781 -27.53125 1.125 -27.5625 Z M 9.5 -14.140625 C 10.457031 -14.117188 11.363281 -14.066406 12.21875 -13.984375 C 13.070312 -13.898438 13.859375 -13.820312 14.578125 -13.75 C 15.304688 -13.6875 15.921875 -13.644531 16.421875 -13.625 C 19.285156 -13.488281 21.429688 -12.992188 22.859375 -12.140625 C 24.285156 -11.285156 25.160156 -10.03125 25.484375 -8.375 L 26.328125 -4.203125 C 26.535156 -3.210938 26.769531 -2.53125 27.03125 -2.15625 C 27.300781 -1.789062 27.664062 -1.609375 28.125 -1.609375 C 28.394531 -1.609375 28.617188 -1.644531 28.796875 -1.71875 C 28.984375 -1.800781 29.171875 -1.9375 29.359375 -2.125 L 29.890625 -1.609375 C 29.054688 -0.773438 28.148438 -0.207031 27.171875 0.09375 C 26.203125 0.40625 25.101562 0.5625 23.875 0.5625 C 22.132812 0.5625 20.726562 0.246094 19.65625 -0.375 C 18.59375 -1.007812 17.941406 -2.140625 17.703125 -3.765625 L 17.109375 -7.765625 C 16.941406 -8.867188 16.738281 -9.847656 16.5 -10.703125 C 16.257812 -11.554688 15.9375 -12.226562 15.53125 -12.71875 C 15.132812 -13.21875 14.59375 -13.46875 13.90625 -13.46875 L 9.578125 -13.46875 Z M 9.5 -14.140625 "/></g></g></g><g fill="#ffffff" fill-opacity="1"><g transform="translate(184.395731, 213.116499)"><g><path d="M 14.9375 -28.359375 L 14.9375 -27.5625 C 14.132812 -27.53125 13.523438 -27.425781 13.109375 -27.25 C 12.703125 -27.082031 12.429688 -26.765625 12.296875 -26.296875 C 12.160156 -25.828125 12.09375 -25.101562 12.09375 -24.125 L 12.09375 -4.25 C 12.09375 -3.28125 12.164062 -2.554688 12.3125 -2.078125 C 12.46875 -1.597656 12.742188 -1.273438 13.140625 -1.109375 C 13.535156 -0.953125 14.132812 -0.847656 14.9375 -0.796875 L 14.9375 0 C 14.164062 -0.0507812 13.171875 -0.0820312 11.953125 -0.09375 C 10.742188 -0.113281 9.507812 -0.125 8.25 -0.125 C 6.8125 -0.125 5.457031 -0.113281 4.1875 -0.09375 C 2.914062 -0.0820312 1.894531 -0.0507812 1.125 0 L 1.125 -0.796875 C 1.945312 -0.847656 2.554688 -0.953125 2.953125 -1.109375 C 3.359375 -1.273438 3.628906 -1.597656 3.765625 -2.078125 C 3.898438 -2.554688 3.96875 -3.28125 3.96875 -4.25 L 3.96875 -24.125 C 3.96875 -25.101562 3.898438 -25.828125 3.765625 -26.296875 C 3.628906 -26.765625 3.351562 -27.082031 2.9375 -27.25 C 2.53125 -27.425781 1.925781 -27.53125 1.125 -27.5625 L 1.125 -28.359375 C 1.894531 -28.335938 2.914062 -28.3125 4.1875 -28.28125 C 5.457031 -28.257812 6.8125 -28.25 8.25 -28.25 C 9.507812 -28.25 10.742188 -28.257812 11.953125 -28.28125 C 13.171875 -28.3125 14.164062 -28.335938 14.9375 -28.359375 Z M 14.9375 -28.359375 "/></g></g></g><g fill="#ffffff" fill-opacity="1"><g transform="translate(201.459123, 213.116499)"><g><path d="M 12.09375 -28.921875 C 13.832031 -28.921875 15.179688 -28.75 16.140625 -28.40625 C 17.109375 -28.0625 17.925781 -27.703125 18.59375 -27.328125 C 18.90625 -27.140625 19.160156 -27 19.359375 -26.90625 C 19.566406 -26.8125 19.765625 -26.765625 19.953125 -26.765625 C 20.222656 -26.765625 20.414062 -26.910156 20.53125 -27.203125 C 20.65625 -27.492188 20.753906 -27.9375 20.828125 -28.53125 L 21.75 -28.53125 C 21.726562 -27.96875 21.695312 -27.3125 21.65625 -26.5625 C 21.613281 -25.8125 21.582031 -24.820312 21.5625 -23.59375 C 21.550781 -22.363281 21.546875 -20.75 21.546875 -18.75 L 20.625 -18.75 C 20.519531 -20.21875 20.179688 -21.644531 19.609375 -23.03125 C 19.035156 -24.425781 18.25 -25.578125 17.25 -26.484375 C 16.25 -27.390625 15.050781 -27.84375 13.65625 -27.84375 C 12.488281 -27.84375 11.515625 -27.519531 10.734375 -26.875 C 9.960938 -26.238281 9.578125 -25.320312 9.578125 -24.125 C 9.578125 -23.132812 9.816406 -22.285156 10.296875 -21.578125 C 10.773438 -20.867188 11.53125 -20.125 12.5625 -19.34375 C 13.59375 -18.570312 14.945312 -17.597656 16.625 -16.421875 C 17.820312 -15.597656 18.910156 -14.769531 19.890625 -13.9375 C 20.867188 -13.113281 21.648438 -12.179688 22.234375 -11.140625 C 22.816406 -10.097656 23.109375 -8.84375 23.109375 -7.375 C 23.109375 -5.582031 22.609375 -4.097656 21.609375 -2.921875 C 20.609375 -1.742188 19.28125 -0.867188 17.625 -0.296875 C 15.96875 0.273438 14.164062 0.5625 12.21875 0.5625 C 10.40625 0.5625 8.957031 0.398438 7.875 0.078125 C 6.789062 -0.242188 5.875 -0.578125 5.125 -0.921875 C 4.539062 -1.296875 4.085938 -1.484375 3.765625 -1.484375 C 3.492188 -1.484375 3.296875 -1.332031 3.171875 -1.03125 C 3.054688 -0.738281 2.960938 -0.300781 2.890625 0.28125 L 1.96875 0.28125 C 2.019531 -0.414062 2.050781 -1.222656 2.0625 -2.140625 C 2.070312 -3.066406 2.082031 -4.265625 2.09375 -5.734375 C 2.113281 -7.203125 2.125 -9.070312 2.125 -11.34375 L 3.046875 -11.34375 C 3.148438 -9.46875 3.445312 -7.710938 3.9375 -6.078125 C 4.4375 -4.453125 5.195312 -3.140625 6.21875 -2.140625 C 7.25 -1.140625 8.625 -0.640625 10.34375 -0.640625 C 11.320312 -0.640625 12.164062 -0.789062 12.875 -1.09375 C 13.582031 -1.40625 14.132812 -1.851562 14.53125 -2.4375 C 14.9375 -3.03125 15.140625 -3.738281 15.140625 -4.5625 C 15.140625 -5.6875 14.882812 -6.671875 14.375 -7.515625 C 13.875 -8.359375 13.1875 -9.144531 12.3125 -9.875 C 11.445312 -10.613281 10.441406 -11.351562 9.296875 -12.09375 C 8.035156 -12.945312 6.859375 -13.800781 5.765625 -14.65625 C 4.671875 -15.507812 3.796875 -16.472656 3.140625 -17.546875 C 2.484375 -18.617188 2.15625 -19.890625 2.15625 -21.359375 C 2.15625 -23.117188 2.625 -24.550781 3.5625 -25.65625 C 4.5 -26.769531 5.726562 -27.59375 7.25 -28.125 C 8.769531 -28.65625 10.382812 -28.921875 12.09375 -28.921875 Z M 12.09375 -28.921875 "/></g></g></g><g fill="#ffffff" fill-opacity="1"><g transform="translate(227.014098, 213.116499)"><g><path d="M 12.09375 -28.921875 C 13.832031 -28.921875 15.179688 -28.75 16.140625 -28.40625 C 17.109375 -28.0625 17.925781 -27.703125 18.59375 -27.328125 C 18.90625 -27.140625 19.160156 -27 19.359375 -26.90625 C 19.566406 -26.8125 19.765625 -26.765625 19.953125 -26.765625 C 20.222656 -26.765625 20.414062 -26.910156 20.53125 -27.203125 C 20.65625 -27.492188 20.753906 -27.9375 20.828125 -28.53125 L 21.75 -28.53125 C 21.726562 -27.96875 21.695312 -27.3125 21.65625 -26.5625 C 21.613281 -25.8125 21.582031 -24.820312 21.5625 -23.59375 C 21.550781 -22.363281 21.546875 -20.75 21.546875 -18.75 L 20.625 -18.75 C 20.519531 -20.21875 20.179688 -21.644531 19.609375 -23.03125 C 19.035156 -24.425781 18.25 -25.578125 17.25 -26.484375 C 16.25 -27.390625 15.050781 -27.84375 13.65625 -27.84375 C 12.488281 -27.84375 11.515625 -27.519531 10.734375 -26.875 C 9.960938 -26.238281 9.578125 -25.320312 9.578125 -24.125 C 9.578125 -23.132812 9.816406 -22.285156 10.296875 -21.578125 C 10.773438 -20.867188 11.53125 -20.125 12.5625 -19.34375 C 13.59375 -18.570312 14.945312 -17.597656 16.625 -16.421875 C 17.820312 -15.597656 18.910156 -14.769531 19.890625 -13.9375 C 20.867188 -13.113281 21.648438 -12.179688 22.234375 -11.140625 C 22.816406 -10.097656 23.109375 -8.84375 23.109375 -7.375 C 23.109375 -5.582031 22.609375 -4.097656 21.609375 -2.921875 C 20.609375 -1.742188 19.28125 -0.867188 17.625 -0.296875 C 15.96875 0.273438 14.164062 0.5625 12.21875 0.5625 C 10.40625 0.5625 8.957031 0.398438 7.875 0.078125 C 6.789062 -0.242188 5.875 -0.578125 5.125 -0.921875 C 4.539062 -1.296875 4.085938 -1.484375 3.765625 -1.484375 C 3.492188 -1.484375 3.296875 -1.332031 3.171875 -1.03125 C 3.054688 -0.738281 2.960938 -0.300781 2.890625 0.28125 L 1.96875 0.28125 C 2.019531 -0.414062 2.050781 -1.222656 2.0625 -2.140625 C 2.070312 -3.066406 2.082031 -4.265625 2.09375 -5.734375 C 2.113281 -7.203125 2.125 -9.070312 2.125 -11.34375 L 3.046875 -11.34375 C 3.148438 -9.46875 3.445312 -7.710938 3.9375 -6.078125 C 4.4375 -4.453125 5.195312 -3.140625 6.21875 -2.140625 C 7.25 -1.140625 8.625 -0.640625 10.34375 -0.640625 C 11.320312 -0.640625 12.164062 -0.789062 12.875 -1.09375 C 13.582031 -1.40625 14.132812 -1.851562 14.53125 -2.4375 C 14.9375 -3.03125 15.140625 -3.738281 15.140625 -4.5625 C 15.140625 -5.6875 14.882812 -6.671875 14.375 -7.515625 C 13.875 -8.359375 13.1875 -9.144531 12.3125 -9.875 C 11.445312 -10.613281 10.441406 -11.351562 9.296875 -12.09375 C 8.035156 -12.945312 6.859375 -13.800781 5.765625 -14.65625 C 4.671875 -15.507812 3.796875 -16.472656 3.140625 -17.546875 C 2.484375 -18.617188 2.15625 -19.890625 2.15625 -21.359375 C 2.15625 -23.117188 2.625 -24.550781 3.5625 -25.65625 C 4.5 -26.769531 5.726562 -27.59375 7.25 -28.125 C 8.769531 -28.65625 10.382812 -28.921875 12.09375 -28.921875 Z M 12.09375 -28.921875 "/></g></g></g><g fill="#ffffff" fill-opacity="1"><g transform="translate(252.569074, 213.116499)"><g><path d="M 16.578125 -28.921875 C 19.597656 -28.921875 22.242188 -28.347656 24.515625 -27.203125 C 26.785156 -26.054688 28.546875 -24.40625 29.796875 -22.25 C 31.054688 -20.101562 31.6875 -17.492188 31.6875 -14.421875 C 31.6875 -11.429688 31.046875 -8.8125 29.765625 -6.5625 C 28.484375 -4.320312 26.703125 -2.570312 24.421875 -1.3125 C 22.140625 -0.0625 19.515625 0.5625 16.546875 0.5625 C 13.523438 0.5625 10.878906 -0.0078125 8.609375 -1.15625 C 6.335938 -2.3125 4.570312 -3.96875 3.3125 -6.125 C 2.0625 -8.289062 1.4375 -10.894531 1.4375 -13.9375 C 1.4375 -16.925781 2.082031 -19.539062 3.375 -21.78125 C 4.675781 -24.03125 6.460938 -25.78125 8.734375 -27.03125 C 11.003906 -28.289062 13.617188 -28.921875 16.578125 -28.921875 Z M 16.421875 -28.203125 C 15.085938 -28.203125 13.925781 -27.597656 12.9375 -26.390625 C 11.945312 -25.191406 11.1875 -23.535156 10.65625 -21.421875 C 10.125 -19.316406 9.859375 -16.878906 9.859375 -14.109375 C 9.859375 -11.273438 10.164062 -8.804688 10.78125 -6.703125 C 11.394531 -4.609375 12.222656 -2.992188 13.265625 -1.859375 C 14.304688 -0.722656 15.453125 -0.15625 16.703125 -0.15625 C 18.035156 -0.15625 19.195312 -0.753906 20.1875 -1.953125 C 21.175781 -3.160156 21.9375 -4.828125 22.46875 -6.953125 C 23.007812 -9.078125 23.28125 -11.515625 23.28125 -14.265625 C 23.28125 -17.117188 22.972656 -19.585938 22.359375 -21.671875 C 21.742188 -23.753906 20.914062 -25.363281 19.875 -26.5 C 18.832031 -27.632812 17.679688 -28.203125 16.421875 -28.203125 Z M 16.421875 -28.203125 "/></g></g></g><g fill="#ffffff" fill-opacity="1"><g transform="translate(286.695754, 213.116499)"><g><path d="M 37.53125 -28.359375 L 37.53125 -27.5625 C 36.738281 -27.53125 36.132812 -27.425781 35.71875 -27.25 C 35.300781 -27.082031 35.023438 -26.765625 34.890625 -26.296875 C 34.753906 -25.828125 34.6875 -25.101562 34.6875 -24.125 L 34.6875 -4.25 C 34.6875 -3.28125 34.757812 -2.554688 34.90625 -2.078125 C 35.0625 -1.597656 35.335938 -1.273438 35.734375 -1.109375 C 36.140625 -0.953125 36.738281 -0.847656 37.53125 -0.796875 L 37.53125 0 C 36.707031 -0.0507812 35.65625 -0.0820312 34.375 -0.09375 C 33.09375 -0.113281 31.785156 -0.125 30.453125 -0.125 C 29.003906 -0.125 27.644531 -0.113281 26.375 -0.09375 C 25.113281 -0.0820312 24.09375 -0.0507812 23.3125 0 L 23.3125 -0.796875 C 24.21875 -0.847656 24.90625 -0.953125 25.375 -1.109375 C 25.84375 -1.273438 26.15625 -1.597656 26.3125 -2.078125 C 26.476562 -2.554688 26.5625 -3.28125 26.5625 -4.25 L 26.5625 -25.6875 L 26.96875 -25.765625 L 16.90625 -0.046875 L 16.265625 -0.046875 L 4.96875 -25.765625 L 4.96875 -7.859375 C 4.96875 -6.066406 5.039062 -4.695312 5.1875 -3.75 C 5.332031 -2.800781 5.691406 -2.117188 6.265625 -1.703125 C 6.835938 -1.285156 7.753906 -0.984375 9.015625 -0.796875 L 9.015625 0 C 8.484375 -0.0507812 7.789062 -0.0820312 6.9375 -0.09375 C 6.082031 -0.113281 5.28125 -0.125 4.53125 -0.125 C 3.9375 -0.125 3.332031 -0.113281 2.71875 -0.09375 C 2.101562 -0.0820312 1.597656 -0.0507812 1.203125 0 L 1.203125 -0.796875 C 2.023438 -0.984375 2.632812 -1.269531 3.03125 -1.65625 C 3.4375 -2.050781 3.707031 -2.675781 3.84375 -3.53125 C 3.976562 -4.382812 4.046875 -5.554688 4.046875 -7.046875 L 4.046875 -24.125 C 4.046875 -25.101562 3.976562 -25.828125 3.84375 -26.296875 C 3.707031 -26.765625 3.429688 -27.082031 3.015625 -27.25 C 2.609375 -27.425781 2.003906 -27.53125 1.203125 -27.5625 L 1.203125 -28.359375 C 1.597656 -28.335938 2.101562 -28.3125 2.71875 -28.28125 C 3.332031 -28.257812 3.9375 -28.25 4.53125 -28.25 C 6.070312 -28.25 7.550781 -28.257812 8.96875 -28.28125 C 10.382812 -28.3125 11.664062 -28.335938 12.8125 -28.359375 L 20.75 -10.5 L 19.546875 -9.171875 L 26.96875 -28.25 C 27.5 -28.25 28.070312 -28.25 28.6875 -28.25 C 29.300781 -28.25 29.890625 -28.25 30.453125 -28.25 C 31.785156 -28.25 33.09375 -28.257812 34.375 -28.28125 C 35.65625 -28.3125 36.707031 -28.335938 37.53125 -28.359375 Z M 37.53125 -28.359375 "/></g></g></g></svg>