<?xml version="1.0" standalone="no"?>
<!DOCTYPE svg PUBLIC "-//W3C//DTD SVG 1.1//EN" "http://www.w3.org/Graphics/SVG/1.1/DTD/svg11.dtd">
<svg xmlns="http://www.w3.org/2000/svg" xmlns:xlink="http://www.w3.org/1999/xlink" width="375" zoomAndPan="magnify" viewBox="0 0 375 374.999991" height="375" preserveAspectRatio="xMidYMid meet" version="1.0"><defs><g/><clipPath id="5900090d98"><path d="M 92.816406 52.683594 L 281.816406 52.683594 L 281.816406 270.699219 L 92.816406 270.699219 Z M 92.816406 52.683594 " clip-rule="nonzero"/></clipPath><clipPath id="868165aa32"><path d="M 92.816406 76.429688 L 281.816406 76.429688 L 281.816406 246.492188 L 92.816406 246.492188 Z M 92.816406 76.429688 " clip-rule="nonzero"/></clipPath><clipPath id="a9a4677c6d"><path d="M 92.816406 52.683594 L 281.816406 52.683594 L 281.816406 270.699219 L 92.816406 270.699219 Z M 92.816406 52.683594 " clip-rule="nonzero"/></clipPath></defs><g fill="#0a1456" fill-opacity="0.4"><g transform="translate(95.258349, 316.834491)"><g><path d="M 15.78125 -26.875 C 17.519531 -26.875 18.945312 -26.632812 20.0625 -26.15625 C 21.175781 -25.6875 22.15625 -25.117188 23 -24.453125 C 23.269531 -24.234375 23.519531 -24.125 23.75 -24.125 C 24.21875 -24.125 24.523438 -24.863281 24.671875 -26.34375 L 25.53125 -26.34375 C 25.476562 -25.351562 25.441406 -24.144531 25.421875 -22.71875 C 25.398438 -21.289062 25.390625 -19.398438 25.390625 -17.046875 L 24.53125 -17.046875 C 24.351562 -18.828125 24.046875 -20.320312 23.609375 -21.53125 C 23.179688 -22.738281 22.347656 -23.765625 21.109375 -24.609375 C 20.585938 -24.953125 19.976562 -25.222656 19.28125 -25.421875 C 18.582031 -25.617188 17.910156 -25.71875 17.265625 -25.71875 C 15.828125 -25.71875 14.632812 -25.328125 13.6875 -24.546875 C 12.75 -23.765625 12 -22.742188 11.4375 -21.484375 C 10.882812 -20.234375 10.488281 -18.867188 10.25 -17.390625 C 10.019531 -15.921875 9.90625 -14.488281 9.90625 -13.09375 C 9.90625 -8.632812 10.445312 -5.375 11.53125 -3.3125 C 12.625 -1.25 14.078125 -0.21875 15.890625 -0.21875 C 16.285156 -0.21875 16.628906 -0.253906 16.921875 -0.328125 C 17.222656 -0.410156 17.488281 -0.523438 17.71875 -0.671875 C 17.988281 -0.867188 18.1875 -1.113281 18.3125 -1.40625 C 18.4375 -1.707031 18.5 -2.082031 18.5 -2.53125 L 18.5 -6.25 C 18.5 -7.46875 18.40625 -8.375 18.21875 -8.96875 C 18.03125 -9.5625 17.660156 -9.96875 17.109375 -10.1875 C 16.566406 -10.414062 15.773438 -10.539062 14.734375 -10.5625 L 14.734375 -11.3125 C 15.304688 -11.289062 16 -11.269531 16.8125 -11.25 C 17.632812 -11.238281 18.492188 -11.226562 19.390625 -11.21875 C 20.285156 -11.207031 21.101562 -11.203125 21.84375 -11.203125 C 23.039062 -11.203125 24.140625 -11.210938 25.140625 -11.234375 C 26.148438 -11.265625 26.960938 -11.289062 27.578125 -11.3125 L 27.578125 -10.5625 C 27.160156 -10.539062 26.835938 -10.457031 26.609375 -10.3125 C 26.390625 -10.164062 26.238281 -9.867188 26.15625 -9.421875 C 26.082031 -8.972656 26.046875 -8.289062 26.046875 -7.375 L 26.046875 0 L 25.3125 0 C 25.28125 -0.414062 25.175781 -0.875 25 -1.375 C 24.832031 -1.875 24.550781 -2.125 24.15625 -2.125 C 23.957031 -2.125 23.675781 -2.070312 23.3125 -1.96875 C 22.957031 -1.875 22.394531 -1.640625 21.625 -1.265625 C 20.65625 -0.796875 19.628906 -0.378906 18.546875 -0.015625 C 17.472656 0.335938 16.398438 0.515625 15.328125 0.515625 C 12.234375 0.515625 9.640625 -0.015625 7.546875 -1.078125 C 5.460938 -2.148438 3.90625 -3.6875 2.875 -5.6875 C 1.851562 -7.695312 1.34375 -10.117188 1.34375 -12.953125 C 1.34375 -15.734375 1.957031 -18.164062 3.1875 -20.25 C 4.414062 -22.332031 6.113281 -23.957031 8.28125 -25.125 C 10.445312 -26.289062 12.945312 -26.875 15.78125 -26.875 Z M 15.78125 -26.875 "/></g></g></g><g fill="#0a1456" fill-opacity="0.4"><g transform="translate(124.317368, 316.834491)"><g><path d="M 1.046875 -26.34375 C 1.765625 -26.320312 2.710938 -26.296875 3.890625 -26.265625 C 5.066406 -26.242188 6.25 -26.234375 7.4375 -26.234375 C 8.6875 -26.234375 9.878906 -26.242188 11.015625 -26.265625 C 12.160156 -26.296875 12.96875 -26.3125 13.4375 -26.3125 C 15.96875 -26.3125 18.054688 -26.078125 19.703125 -25.609375 C 21.359375 -25.140625 22.59375 -24.425781 23.40625 -23.46875 C 24.226562 -22.507812 24.640625 -21.300781 24.640625 -19.84375 C 24.640625 -18.914062 24.453125 -18.019531 24.078125 -17.15625 C 23.703125 -16.289062 23.066406 -15.503906 22.171875 -14.796875 C 21.285156 -14.085938 20.066406 -13.523438 18.515625 -13.109375 C 16.960938 -12.703125 14.992188 -12.5 12.609375 -12.5 L 9.046875 -12.5 L 9.046875 -13.25 L 12.25 -13.25 C 13.507812 -13.25 14.46875 -13.523438 15.125 -14.078125 C 15.78125 -14.640625 16.226562 -15.382812 16.46875 -16.3125 C 16.707031 -17.25 16.828125 -18.285156 16.828125 -19.421875 C 16.828125 -21.390625 16.554688 -22.910156 16.015625 -23.984375 C 15.484375 -25.066406 14.5625 -25.609375 13.25 -25.609375 C 12.40625 -25.609375 11.859375 -25.394531 11.609375 -24.96875 C 11.359375 -24.550781 11.234375 -23.695312 11.234375 -22.40625 L 11.234375 -3.9375 C 11.234375 -3.050781 11.300781 -2.382812 11.4375 -1.9375 C 11.582031 -1.488281 11.835938 -1.1875 12.203125 -1.03125 C 12.578125 -0.882812 13.132812 -0.789062 13.875 -0.75 L 13.875 0 C 13.15625 -0.0507812 12.234375 -0.0820312 11.109375 -0.09375 C 9.984375 -0.101562 8.835938 -0.109375 7.671875 -0.109375 C 6.328125 -0.109375 5.066406 -0.101562 3.890625 -0.09375 C 2.710938 -0.0820312 1.765625 -0.0507812 1.046875 0 L 1.046875 -0.75 C 1.816406 -0.789062 2.382812 -0.882812 2.75 -1.03125 C 3.125 -1.1875 3.375 -1.488281 3.5 -1.9375 C 3.625 -2.382812 3.6875 -3.050781 3.6875 -3.9375 L 3.6875 -22.40625 C 3.6875 -23.320312 3.625 -23.992188 3.5 -24.421875 C 3.375 -24.859375 3.117188 -25.15625 2.734375 -25.3125 C 2.347656 -25.476562 1.785156 -25.578125 1.046875 -25.609375 Z M 8.828125 -13.140625 C 9.710938 -13.109375 10.550781 -13.054688 11.34375 -12.984375 C 12.144531 -12.910156 12.878906 -12.84375 13.546875 -12.78125 C 14.210938 -12.71875 14.785156 -12.675781 15.265625 -12.65625 C 17.910156 -12.53125 19.894531 -12.070312 21.21875 -11.28125 C 22.550781 -10.488281 23.367188 -9.320312 23.671875 -7.78125 L 24.453125 -3.90625 C 24.648438 -2.988281 24.875 -2.351562 25.125 -2 C 25.375 -1.65625 25.707031 -1.484375 26.125 -1.484375 C 26.375 -1.484375 26.582031 -1.519531 26.75 -1.59375 C 26.925781 -1.675781 27.101562 -1.800781 27.28125 -1.96875 L 27.765625 -1.484375 C 26.992188 -0.710938 26.15625 -0.1875 25.25 0.09375 C 24.34375 0.375 23.320312 0.515625 22.1875 0.515625 C 20.570312 0.515625 19.265625 0.222656 18.265625 -0.359375 C 17.273438 -0.941406 16.671875 -1.988281 16.453125 -3.5 L 15.890625 -7.21875 C 15.742188 -8.238281 15.554688 -9.144531 15.328125 -9.9375 C 15.109375 -10.726562 14.8125 -11.351562 14.4375 -11.8125 C 14.0625 -12.269531 13.554688 -12.5 12.921875 -12.5 L 8.890625 -12.5 Z M 8.828125 -13.140625 "/></g></g></g><g fill="#0a1456" fill-opacity="0.4"><g transform="translate(152.074129, 316.834491)"><g><path d="M 13.875 -26.34375 L 13.875 -25.609375 C 13.132812 -25.578125 12.570312 -25.476562 12.1875 -25.3125 C 11.800781 -25.15625 11.546875 -24.859375 11.421875 -24.421875 C 11.296875 -23.992188 11.234375 -23.320312 11.234375 -22.40625 L 11.234375 -3.9375 C 11.234375 -3.050781 11.300781 -2.382812 11.4375 -1.9375 C 11.582031 -1.488281 11.835938 -1.1875 12.203125 -1.03125 C 12.578125 -0.882812 13.132812 -0.789062 13.875 -0.75 L 13.875 0 C 13.15625 -0.0507812 12.234375 -0.0820312 11.109375 -0.09375 C 9.984375 -0.101562 8.835938 -0.109375 7.671875 -0.109375 C 6.328125 -0.109375 5.066406 -0.101562 3.890625 -0.09375 C 2.710938 -0.0820312 1.765625 -0.0507812 1.046875 0 L 1.046875 -0.75 C 1.816406 -0.789062 2.382812 -0.882812 2.75 -1.03125 C 3.125 -1.1875 3.375 -1.488281 3.5 -1.9375 C 3.625 -2.382812 3.6875 -3.050781 3.6875 -3.9375 L 3.6875 -22.40625 C 3.6875 -23.320312 3.625 -23.992188 3.5 -24.421875 C 3.375 -24.859375 3.117188 -25.15625 2.734375 -25.3125 C 2.347656 -25.476562 1.785156 -25.578125 1.046875 -25.609375 L 1.046875 -26.34375 C 1.765625 -26.320312 2.710938 -26.296875 3.890625 -26.265625 C 5.066406 -26.242188 6.328125 -26.234375 7.671875 -26.234375 C 8.835938 -26.234375 9.984375 -26.242188 11.109375 -26.265625 C 12.234375 -26.296875 13.15625 -26.320312 13.875 -26.34375 Z M 13.875 -26.34375 "/></g></g></g><g fill="#0a1456" fill-opacity="0.4"><g transform="translate(167.92463, 316.834491)"><g><path d="M 11.234375 -26.875 C 12.847656 -26.875 14.101562 -26.710938 15 -26.390625 C 15.894531 -26.066406 16.648438 -25.734375 17.265625 -25.390625 C 17.566406 -25.210938 17.8125 -25.078125 18 -24.984375 C 18.1875 -24.898438 18.363281 -24.859375 18.53125 -24.859375 C 18.78125 -24.859375 18.957031 -24.992188 19.0625 -25.265625 C 19.175781 -25.546875 19.273438 -25.957031 19.359375 -26.5 L 20.203125 -26.5 C 20.179688 -25.976562 20.148438 -25.367188 20.109375 -24.671875 C 20.078125 -23.984375 20.054688 -23.066406 20.046875 -21.921875 C 20.035156 -20.773438 20.03125 -19.273438 20.03125 -17.421875 L 19.171875 -17.421875 C 19.066406 -18.785156 18.75 -20.113281 18.21875 -21.40625 C 17.6875 -22.695312 16.953125 -23.757812 16.015625 -24.59375 C 15.085938 -25.4375 13.976562 -25.859375 12.6875 -25.859375 C 11.59375 -25.859375 10.6875 -25.5625 9.96875 -24.96875 C 9.25 -24.375 8.890625 -23.519531 8.890625 -22.40625 C 8.890625 -21.488281 9.113281 -20.703125 9.5625 -20.046875 C 10.007812 -19.390625 10.707031 -18.695312 11.65625 -17.96875 C 12.613281 -17.25 13.878906 -16.347656 15.453125 -15.265625 C 16.566406 -14.492188 17.578125 -13.722656 18.484375 -12.953125 C 19.390625 -12.179688 20.113281 -11.3125 20.65625 -10.34375 C 21.195312 -9.375 21.46875 -8.207031 21.46875 -6.84375 C 21.46875 -5.1875 21.003906 -3.8125 20.078125 -2.71875 C 19.148438 -1.625 17.914062 -0.8125 16.375 -0.28125 C 14.832031 0.25 13.160156 0.515625 11.359375 0.515625 C 9.671875 0.515625 8.320312 0.363281 7.3125 0.0625 C 6.3125 -0.226562 5.460938 -0.535156 4.765625 -0.859375 C 4.210938 -1.203125 3.789062 -1.375 3.5 -1.375 C 3.25 -1.375 3.066406 -1.238281 2.953125 -0.96875 C 2.847656 -0.695312 2.757812 -0.285156 2.6875 0.265625 L 1.828125 0.265625 C 1.867188 -0.378906 1.894531 -1.128906 1.90625 -1.984375 C 1.925781 -2.847656 1.941406 -3.960938 1.953125 -5.328125 C 1.960938 -6.691406 1.96875 -8.425781 1.96875 -10.53125 L 2.828125 -10.53125 C 2.929688 -8.789062 3.210938 -7.164062 3.671875 -5.65625 C 4.128906 -4.144531 4.832031 -2.921875 5.78125 -1.984375 C 6.738281 -1.054688 8.015625 -0.59375 9.609375 -0.59375 C 10.523438 -0.59375 11.3125 -0.734375 11.96875 -1.015625 C 12.625 -1.304688 13.132812 -1.722656 13.5 -2.265625 C 13.875 -2.816406 14.0625 -3.476562 14.0625 -4.25 C 14.0625 -5.289062 13.828125 -6.203125 13.359375 -6.984375 C 12.890625 -7.765625 12.25 -8.492188 11.4375 -9.171875 C 10.632812 -9.859375 9.703125 -10.546875 8.640625 -11.234375 C 7.472656 -12.035156 6.378906 -12.832031 5.359375 -13.625 C 4.335938 -14.414062 3.523438 -15.304688 2.921875 -16.296875 C 2.316406 -17.296875 2.015625 -18.476562 2.015625 -19.84375 C 2.015625 -21.476562 2.445312 -22.8125 3.3125 -23.84375 C 4.175781 -24.875 5.316406 -25.632812 6.734375 -26.125 C 8.148438 -26.625 9.648438 -26.875 11.234375 -26.875 Z M 11.234375 -26.875 "/></g></g></g><g fill="#0a1456" fill-opacity="0.4"><g transform="translate(191.66304, 316.834491)"><g><path d="M 11.234375 -26.875 C 12.847656 -26.875 14.101562 -26.710938 15 -26.390625 C 15.894531 -26.066406 16.648438 -25.734375 17.265625 -25.390625 C 17.566406 -25.210938 17.8125 -25.078125 18 -24.984375 C 18.1875 -24.898438 18.363281 -24.859375 18.53125 -24.859375 C 18.78125 -24.859375 18.957031 -24.992188 19.0625 -25.265625 C 19.175781 -25.546875 19.273438 -25.957031 19.359375 -26.5 L 20.203125 -26.5 C 20.179688 -25.976562 20.148438 -25.367188 20.109375 -24.671875 C 20.078125 -23.984375 20.054688 -23.066406 20.046875 -21.921875 C 20.035156 -20.773438 20.03125 -19.273438 20.03125 -17.421875 L 19.171875 -17.421875 C 19.066406 -18.785156 18.75 -20.113281 18.21875 -21.40625 C 17.6875 -22.695312 16.953125 -23.757812 16.015625 -24.59375 C 15.085938 -25.4375 13.976562 -25.859375 12.6875 -25.859375 C 11.59375 -25.859375 10.6875 -25.5625 9.96875 -24.96875 C 9.25 -24.375 8.890625 -23.519531 8.890625 -22.40625 C 8.890625 -21.488281 9.113281 -20.703125 9.5625 -20.046875 C 10.007812 -19.390625 10.707031 -18.695312 11.65625 -17.96875 C 12.613281 -17.25 13.878906 -16.347656 15.453125 -15.265625 C 16.566406 -14.492188 17.578125 -13.722656 18.484375 -12.953125 C 19.390625 -12.179688 20.113281 -11.3125 20.65625 -10.34375 C 21.195312 -9.375 21.46875 -8.207031 21.46875 -6.84375 C 21.46875 -5.1875 21.003906 -3.8125 20.078125 -2.71875 C 19.148438 -1.625 17.914062 -0.8125 16.375 -0.28125 C 14.832031 0.25 13.160156 0.515625 11.359375 0.515625 C 9.671875 0.515625 8.320312 0.363281 7.3125 0.0625 C 6.3125 -0.226562 5.460938 -0.535156 4.765625 -0.859375 C 4.210938 -1.203125 3.789062 -1.375 3.5 -1.375 C 3.25 -1.375 3.066406 -1.238281 2.953125 -0.96875 C 2.847656 -0.695312 2.757812 -0.285156 2.6875 0.265625 L 1.828125 0.265625 C 1.867188 -0.378906 1.894531 -1.128906 1.90625 -1.984375 C 1.925781 -2.847656 1.941406 -3.960938 1.953125 -5.328125 C 1.960938 -6.691406 1.96875 -8.425781 1.96875 -10.53125 L 2.828125 -10.53125 C 2.929688 -8.789062 3.210938 -7.164062 3.671875 -5.65625 C 4.128906 -4.144531 4.832031 -2.921875 5.78125 -1.984375 C 6.738281 -1.054688 8.015625 -0.59375 9.609375 -0.59375 C 10.523438 -0.59375 11.3125 -0.734375 11.96875 -1.015625 C 12.625 -1.304688 13.132812 -1.722656 13.5 -2.265625 C 13.875 -2.816406 14.0625 -3.476562 14.0625 -4.25 C 14.0625 -5.289062 13.828125 -6.203125 13.359375 -6.984375 C 12.890625 -7.765625 12.25 -8.492188 11.4375 -9.171875 C 10.632812 -9.859375 9.703125 -10.546875 8.640625 -11.234375 C 7.472656 -12.035156 6.378906 -12.832031 5.359375 -13.625 C 4.335938 -14.414062 3.523438 -15.304688 2.921875 -16.296875 C 2.316406 -17.296875 2.015625 -18.476562 2.015625 -19.84375 C 2.015625 -21.476562 2.445312 -22.8125 3.3125 -23.84375 C 4.175781 -24.875 5.316406 -25.632812 6.734375 -26.125 C 8.148438 -26.625 9.648438 -26.875 11.234375 -26.875 Z M 11.234375 -26.875 "/></g></g></g><g fill="#0a1456" fill-opacity="0.4"><g transform="translate(215.40145, 316.834491)"><g><path d="M 15.40625 -26.875 C 18.207031 -26.875 20.660156 -26.335938 22.765625 -25.265625 C 24.878906 -24.203125 26.519531 -22.671875 27.6875 -20.671875 C 28.851562 -18.671875 29.4375 -16.25 29.4375 -13.40625 C 29.4375 -10.625 28.835938 -8.191406 27.640625 -6.109375 C 26.453125 -4.023438 24.796875 -2.398438 22.671875 -1.234375 C 20.554688 -0.0664062 18.125 0.515625 15.375 0.515625 C 12.570312 0.515625 10.113281 -0.015625 8 -1.078125 C 5.894531 -2.148438 4.257812 -3.6875 3.09375 -5.6875 C 1.925781 -7.695312 1.34375 -10.117188 1.34375 -12.953125 C 1.34375 -15.734375 1.941406 -18.164062 3.140625 -20.25 C 4.347656 -22.332031 6.003906 -23.957031 8.109375 -25.125 C 10.222656 -26.289062 12.65625 -26.875 15.40625 -26.875 Z M 15.265625 -26.203125 C 14.023438 -26.203125 12.941406 -25.644531 12.015625 -24.53125 C 11.097656 -23.414062 10.390625 -21.875 9.890625 -19.90625 C 9.398438 -17.945312 9.15625 -15.675781 9.15625 -13.09375 C 9.15625 -10.46875 9.441406 -8.179688 10.015625 -6.234375 C 10.585938 -4.285156 11.351562 -2.785156 12.3125 -1.734375 C 13.28125 -0.679688 14.347656 -0.15625 15.515625 -0.15625 C 16.753906 -0.15625 17.832031 -0.710938 18.75 -1.828125 C 19.675781 -2.941406 20.382812 -4.484375 20.875 -6.453125 C 21.375 -8.429688 21.625 -10.695312 21.625 -13.25 C 21.625 -15.90625 21.335938 -18.195312 20.765625 -20.125 C 20.191406 -22.0625 19.421875 -23.554688 18.453125 -24.609375 C 17.492188 -25.671875 16.429688 -26.203125 15.265625 -26.203125 Z M 15.265625 -26.203125 "/></g></g></g><g fill="#0a1456" fill-opacity="0.4"><g transform="translate(247.102166, 316.834491)"><g><path d="M 34.875 -26.34375 L 34.875 -25.609375 C 34.125 -25.578125 33.554688 -25.476562 33.171875 -25.3125 C 32.796875 -25.15625 32.546875 -24.859375 32.421875 -24.421875 C 32.296875 -23.992188 32.234375 -23.320312 32.234375 -22.40625 L 32.234375 -3.9375 C 32.234375 -3.050781 32.300781 -2.382812 32.4375 -1.9375 C 32.570312 -1.488281 32.820312 -1.1875 33.1875 -1.03125 C 33.5625 -0.882812 34.125 -0.789062 34.875 -0.75 L 34.875 0 C 34.101562 -0.0507812 33.117188 -0.0820312 31.921875 -0.09375 C 30.734375 -0.101562 29.519531 -0.109375 28.28125 -0.109375 C 26.945312 -0.109375 25.6875 -0.101562 24.5 -0.09375 C 23.320312 -0.0820312 22.375 -0.0507812 21.65625 0 L 21.65625 -0.75 C 22.5 -0.789062 23.140625 -0.882812 23.578125 -1.03125 C 24.015625 -1.1875 24.304688 -1.488281 24.453125 -1.9375 C 24.597656 -2.382812 24.671875 -3.050781 24.671875 -3.9375 L 24.671875 -23.859375 L 25.046875 -23.9375 L 15.703125 -0.03125 L 15.109375 -0.03125 L 4.609375 -23.9375 L 4.609375 -7.296875 C 4.609375 -5.628906 4.675781 -4.351562 4.8125 -3.46875 C 4.957031 -2.59375 5.296875 -1.960938 5.828125 -1.578125 C 6.359375 -1.191406 7.207031 -0.914062 8.375 -0.75 L 8.375 0 C 7.875 -0.0507812 7.226562 -0.0820312 6.4375 -0.09375 C 5.644531 -0.101562 4.898438 -0.109375 4.203125 -0.109375 C 3.660156 -0.109375 3.101562 -0.101562 2.53125 -0.09375 C 1.957031 -0.0820312 1.484375 -0.0507812 1.109375 0 L 1.109375 -0.75 C 1.878906 -0.914062 2.453125 -1.175781 2.828125 -1.53125 C 3.203125 -1.894531 3.453125 -2.472656 3.578125 -3.265625 C 3.703125 -4.066406 3.765625 -5.160156 3.765625 -6.546875 L 3.765625 -22.40625 C 3.765625 -23.320312 3.703125 -23.992188 3.578125 -24.421875 C 3.453125 -24.859375 3.195312 -25.15625 2.8125 -25.3125 C 2.425781 -25.476562 1.859375 -25.578125 1.109375 -25.609375 L 1.109375 -26.34375 C 1.484375 -26.320312 1.957031 -26.296875 2.53125 -26.265625 C 3.101562 -26.242188 3.660156 -26.234375 4.203125 -26.234375 C 5.640625 -26.234375 7.015625 -26.242188 8.328125 -26.265625 C 9.648438 -26.296875 10.84375 -26.320312 11.90625 -26.34375 L 19.28125 -9.75 L 18.15625 -8.515625 L 25.046875 -26.234375 C 25.546875 -26.234375 26.078125 -26.234375 26.640625 -26.234375 C 27.210938 -26.234375 27.757812 -26.234375 28.28125 -26.234375 C 29.519531 -26.234375 30.734375 -26.242188 31.921875 -26.265625 C 33.117188 -26.296875 34.101562 -26.320312 34.875 -26.34375 Z M 34.875 -26.34375 "/></g></g></g><g fill="#0a1456" fill-opacity="1"><g transform="translate(93.61349, 315.189618)"><g><path d="M 15.78125 -26.875 C 17.519531 -26.875 18.945312 -26.632812 20.0625 -26.15625 C 21.175781 -25.6875 22.15625 -25.117188 23 -24.453125 C 23.269531 -24.234375 23.519531 -24.125 23.75 -24.125 C 24.21875 -24.125 24.523438 -24.863281 24.671875 -26.34375 L 25.53125 -26.34375 C 25.476562 -25.351562 25.441406 -24.144531 25.421875 -22.71875 C 25.398438 -21.289062 25.390625 -19.398438 25.390625 -17.046875 L 24.53125 -17.046875 C 24.351562 -18.828125 24.046875 -20.320312 23.609375 -21.53125 C 23.179688 -22.738281 22.347656 -23.765625 21.109375 -24.609375 C 20.585938 -24.953125 19.976562 -25.222656 19.28125 -25.421875 C 18.582031 -25.617188 17.910156 -25.71875 17.265625 -25.71875 C 15.828125 -25.71875 14.632812 -25.328125 13.6875 -24.546875 C 12.75 -23.765625 12 -22.742188 11.4375 -21.484375 C 10.882812 -20.234375 10.488281 -18.867188 10.25 -17.390625 C 10.019531 -15.921875 9.90625 -14.488281 9.90625 -13.09375 C 9.90625 -8.632812 10.445312 -5.375 11.53125 -3.3125 C 12.625 -1.25 14.078125 -0.21875 15.890625 -0.21875 C 16.285156 -0.21875 16.628906 -0.253906 16.921875 -0.328125 C 17.222656 -0.410156 17.488281 -0.523438 17.71875 -0.671875 C 17.988281 -0.867188 18.1875 -1.113281 18.3125 -1.40625 C 18.4375 -1.707031 18.5 -2.082031 18.5 -2.53125 L 18.5 -6.25 C 18.5 -7.46875 18.40625 -8.375 18.21875 -8.96875 C 18.03125 -9.5625 17.660156 -9.96875 17.109375 -10.1875 C 16.566406 -10.414062 15.773438 -10.539062 14.734375 -10.5625 L 14.734375 -11.3125 C 15.304688 -11.289062 16 -11.269531 16.8125 -11.25 C 17.632812 -11.238281 18.492188 -11.226562 19.390625 -11.21875 C 20.285156 -11.207031 21.101562 -11.203125 21.84375 -11.203125 C 23.039062 -11.203125 24.140625 -11.210938 25.140625 -11.234375 C 26.148438 -11.265625 26.960938 -11.289062 27.578125 -11.3125 L 27.578125 -10.5625 C 27.160156 -10.539062 26.835938 -10.457031 26.609375 -10.3125 C 26.390625 -10.164062 26.238281 -9.867188 26.15625 -9.421875 C 26.082031 -8.972656 26.046875 -8.289062 26.046875 -7.375 L 26.046875 0 L 25.3125 0 C 25.28125 -0.414062 25.175781 -0.875 25 -1.375 C 24.832031 -1.875 24.550781 -2.125 24.15625 -2.125 C 23.957031 -2.125 23.675781 -2.070312 23.3125 -1.96875 C 22.957031 -1.875 22.394531 -1.640625 21.625 -1.265625 C 20.65625 -0.796875 19.628906 -0.378906 18.546875 -0.015625 C 17.472656 0.335938 16.398438 0.515625 15.328125 0.515625 C 12.234375 0.515625 9.640625 -0.015625 7.546875 -1.078125 C 5.460938 -2.148438 3.90625 -3.6875 2.875 -5.6875 C 1.851562 -7.695312 1.34375 -10.117188 1.34375 -12.953125 C 1.34375 -15.734375 1.957031 -18.164062 3.1875 -20.25 C 4.414062 -22.332031 6.113281 -23.957031 8.28125 -25.125 C 10.445312 -26.289062 12.945312 -26.875 15.78125 -26.875 Z M 15.78125 -26.875 "/></g></g></g><g fill="#0a1456" fill-opacity="1"><g transform="translate(122.672508, 315.189618)"><g><path d="M 1.046875 -26.34375 C 1.765625 -26.320312 2.710938 -26.296875 3.890625 -26.265625 C 5.066406 -26.242188 6.25 -26.234375 7.4375 -26.234375 C 8.6875 -26.234375 9.878906 -26.242188 11.015625 -26.265625 C 12.160156 -26.296875 12.96875 -26.3125 13.4375 -26.3125 C 15.96875 -26.3125 18.054688 -26.078125 19.703125 -25.609375 C 21.359375 -25.140625 22.59375 -24.425781 23.40625 -23.46875 C 24.226562 -22.507812 24.640625 -21.300781 24.640625 -19.84375 C 24.640625 -18.914062 24.453125 -18.019531 24.078125 -17.15625 C 23.703125 -16.289062 23.066406 -15.503906 22.171875 -14.796875 C 21.285156 -14.085938 20.066406 -13.523438 18.515625 -13.109375 C 16.960938 -12.703125 14.992188 -12.5 12.609375 -12.5 L 9.046875 -12.5 L 9.046875 -13.25 L 12.25 -13.25 C 13.507812 -13.25 14.46875 -13.523438 15.125 -14.078125 C 15.78125 -14.640625 16.226562 -15.382812 16.46875 -16.3125 C 16.707031 -17.25 16.828125 -18.285156 16.828125 -19.421875 C 16.828125 -21.390625 16.554688 -22.910156 16.015625 -23.984375 C 15.484375 -25.066406 14.5625 -25.609375 13.25 -25.609375 C 12.40625 -25.609375 11.859375 -25.394531 11.609375 -24.96875 C 11.359375 -24.550781 11.234375 -23.695312 11.234375 -22.40625 L 11.234375 -3.9375 C 11.234375 -3.050781 11.300781 -2.382812 11.4375 -1.9375 C 11.582031 -1.488281 11.835938 -1.1875 12.203125 -1.03125 C 12.578125 -0.882812 13.132812 -0.789062 13.875 -0.75 L 13.875 0 C 13.15625 -0.0507812 12.234375 -0.0820312 11.109375 -0.09375 C 9.984375 -0.101562 8.835938 -0.109375 7.671875 -0.109375 C 6.328125 -0.109375 5.066406 -0.101562 3.890625 -0.09375 C 2.710938 -0.0820312 1.765625 -0.0507812 1.046875 0 L 1.046875 -0.75 C 1.816406 -0.789062 2.382812 -0.882812 2.75 -1.03125 C 3.125 -1.1875 3.375 -1.488281 3.5 -1.9375 C 3.625 -2.382812 3.6875 -3.050781 3.6875 -3.9375 L 3.6875 -22.40625 C 3.6875 -23.320312 3.625 -23.992188 3.5 -24.421875 C 3.375 -24.859375 3.117188 -25.15625 2.734375 -25.3125 C 2.347656 -25.476562 1.785156 -25.578125 1.046875 -25.609375 Z M 8.828125 -13.140625 C 9.710938 -13.109375 10.550781 -13.054688 11.34375 -12.984375 C 12.144531 -12.910156 12.878906 -12.84375 13.546875 -12.78125 C 14.210938 -12.71875 14.785156 -12.675781 15.265625 -12.65625 C 17.910156 -12.53125 19.894531 -12.070312 21.21875 -11.28125 C 22.550781 -10.488281 23.367188 -9.320312 23.671875 -7.78125 L 24.453125 -3.90625 C 24.648438 -2.988281 24.875 -2.351562 25.125 -2 C 25.375 -1.65625 25.707031 -1.484375 26.125 -1.484375 C 26.375 -1.484375 26.582031 -1.519531 26.75 -1.59375 C 26.925781 -1.675781 27.101562 -1.800781 27.28125 -1.96875 L 27.765625 -1.484375 C 26.992188 -0.710938 26.15625 -0.1875 25.25 0.09375 C 24.34375 0.375 23.320312 0.515625 22.1875 0.515625 C 20.570312 0.515625 19.265625 0.222656 18.265625 -0.359375 C 17.273438 -0.941406 16.671875 -1.988281 16.453125 -3.5 L 15.890625 -7.21875 C 15.742188 -8.238281 15.554688 -9.144531 15.328125 -9.9375 C 15.109375 -10.726562 14.8125 -11.351562 14.4375 -11.8125 C 14.0625 -12.269531 13.554688 -12.5 12.921875 -12.5 L 8.890625 -12.5 Z M 8.828125 -13.140625 "/></g></g></g><g fill="#0a1456" fill-opacity="1"><g transform="translate(150.42927, 315.189618)"><g><path d="M 13.875 -26.34375 L 13.875 -25.609375 C 13.132812 -25.578125 12.570312 -25.476562 12.1875 -25.3125 C 11.800781 -25.15625 11.546875 -24.859375 11.421875 -24.421875 C 11.296875 -23.992188 11.234375 -23.320312 11.234375 -22.40625 L 11.234375 -3.9375 C 11.234375 -3.050781 11.300781 -2.382812 11.4375 -1.9375 C 11.582031 -1.488281 11.835938 -1.1875 12.203125 -1.03125 C 12.578125 -0.882812 13.132812 -0.789062 13.875 -0.75 L 13.875 0 C 13.15625 -0.0507812 12.234375 -0.0820312 11.109375 -0.09375 C 9.984375 -0.101562 8.835938 -0.109375 7.671875 -0.109375 C 6.328125 -0.109375 5.066406 -0.101562 3.890625 -0.09375 C 2.710938 -0.0820312 1.765625 -0.0507812 1.046875 0 L 1.046875 -0.75 C 1.816406 -0.789062 2.382812 -0.882812 2.75 -1.03125 C 3.125 -1.1875 3.375 -1.488281 3.5 -1.9375 C 3.625 -2.382812 3.6875 -3.050781 3.6875 -3.9375 L 3.6875 -22.40625 C 3.6875 -23.320312 3.625 -23.992188 3.5 -24.421875 C 3.375 -24.859375 3.117188 -25.15625 2.734375 -25.3125 C 2.347656 -25.476562 1.785156 -25.578125 1.046875 -25.609375 L 1.046875 -26.34375 C 1.765625 -26.320312 2.710938 -26.296875 3.890625 -26.265625 C 5.066406 -26.242188 6.328125 -26.234375 7.671875 -26.234375 C 8.835938 -26.234375 9.984375 -26.242188 11.109375 -26.265625 C 12.234375 -26.296875 13.15625 -26.320312 13.875 -26.34375 Z M 13.875 -26.34375 "/></g></g></g><g fill="#0a1456" fill-opacity="1"><g transform="translate(166.279771, 315.189618)"><g><path d="M 11.234375 -26.875 C 12.847656 -26.875 14.101562 -26.710938 15 -26.390625 C 15.894531 -26.066406 16.648438 -25.734375 17.265625 -25.390625 C 17.566406 -25.210938 17.8125 -25.078125 18 -24.984375 C 18.1875 -24.898438 18.363281 -24.859375 18.53125 -24.859375 C 18.78125 -24.859375 18.957031 -24.992188 19.0625 -25.265625 C 19.175781 -25.546875 19.273438 -25.957031 19.359375 -26.5 L 20.203125 -26.5 C 20.179688 -25.976562 20.148438 -25.367188 20.109375 -24.671875 C 20.078125 -23.984375 20.054688 -23.066406 20.046875 -21.921875 C 20.035156 -20.773438 20.03125 -19.273438 20.03125 -17.421875 L 19.171875 -17.421875 C 19.066406 -18.785156 18.75 -20.113281 18.21875 -21.40625 C 17.6875 -22.695312 16.953125 -23.757812 16.015625 -24.59375 C 15.085938 -25.4375 13.976562 -25.859375 12.6875 -25.859375 C 11.59375 -25.859375 10.6875 -25.5625 9.96875 -24.96875 C 9.25 -24.375 8.890625 -23.519531 8.890625 -22.40625 C 8.890625 -21.488281 9.113281 -20.703125 9.5625 -20.046875 C 10.007812 -19.390625 10.707031 -18.695312 11.65625 -17.96875 C 12.613281 -17.25 13.878906 -16.347656 15.453125 -15.265625 C 16.566406 -14.492188 17.578125 -13.722656 18.484375 -12.953125 C 19.390625 -12.179688 20.113281 -11.3125 20.65625 -10.34375 C 21.195312 -9.375 21.46875 -8.207031 21.46875 -6.84375 C 21.46875 -5.1875 21.003906 -3.8125 20.078125 -2.71875 C 19.148438 -1.625 17.914062 -0.8125 16.375 -0.28125 C 14.832031 0.25 13.160156 0.515625 11.359375 0.515625 C 9.671875 0.515625 8.320312 0.363281 7.3125 0.0625 C 6.3125 -0.226562 5.460938 -0.535156 4.765625 -0.859375 C 4.210938 -1.203125 3.789062 -1.375 3.5 -1.375 C 3.25 -1.375 3.066406 -1.238281 2.953125 -0.96875 C 2.847656 -0.695312 2.757812 -0.285156 2.6875 0.265625 L 1.828125 0.265625 C 1.867188 -0.378906 1.894531 -1.128906 1.90625 -1.984375 C 1.925781 -2.847656 1.941406 -3.960938 1.953125 -5.328125 C 1.960938 -6.691406 1.96875 -8.425781 1.96875 -10.53125 L 2.828125 -10.53125 C 2.929688 -8.789062 3.210938 -7.164062 3.671875 -5.65625 C 4.128906 -4.144531 4.832031 -2.921875 5.78125 -1.984375 C 6.738281 -1.054688 8.015625 -0.59375 9.609375 -0.59375 C 10.523438 -0.59375 11.3125 -0.734375 11.96875 -1.015625 C 12.625 -1.304688 13.132812 -1.722656 13.5 -2.265625 C 13.875 -2.816406 14.0625 -3.476562 14.0625 -4.25 C 14.0625 -5.289062 13.828125 -6.203125 13.359375 -6.984375 C 12.890625 -7.765625 12.25 -8.492188 11.4375 -9.171875 C 10.632812 -9.859375 9.703125 -10.546875 8.640625 -11.234375 C 7.472656 -12.035156 6.378906 -12.832031 5.359375 -13.625 C 4.335938 -14.414062 3.523438 -15.304688 2.921875 -16.296875 C 2.316406 -17.296875 2.015625 -18.476562 2.015625 -19.84375 C 2.015625 -21.476562 2.445312 -22.8125 3.3125 -23.84375 C 4.175781 -24.875 5.316406 -25.632812 6.734375 -26.125 C 8.148438 -26.625 9.648438 -26.875 11.234375 -26.875 Z M 11.234375 -26.875 "/></g></g></g><g fill="#0a1456" fill-opacity="1"><g transform="translate(190.018181, 315.189618)"><g><path d="M 11.234375 -26.875 C 12.847656 -26.875 14.101562 -26.710938 15 -26.390625 C 15.894531 -26.066406 16.648438 -25.734375 17.265625 -25.390625 C 17.566406 -25.210938 17.8125 -25.078125 18 -24.984375 C 18.1875 -24.898438 18.363281 -24.859375 18.53125 -24.859375 C 18.78125 -24.859375 18.957031 -24.992188 19.0625 -25.265625 C 19.175781 -25.546875 19.273438 -25.957031 19.359375 -26.5 L 20.203125 -26.5 C 20.179688 -25.976562 20.148438 -25.367188 20.109375 -24.671875 C 20.078125 -23.984375 20.054688 -23.066406 20.046875 -21.921875 C 20.035156 -20.773438 20.03125 -19.273438 20.03125 -17.421875 L 19.171875 -17.421875 C 19.066406 -18.785156 18.75 -20.113281 18.21875 -21.40625 C 17.6875 -22.695312 16.953125 -23.757812 16.015625 -24.59375 C 15.085938 -25.4375 13.976562 -25.859375 12.6875 -25.859375 C 11.59375 -25.859375 10.6875 -25.5625 9.96875 -24.96875 C 9.25 -24.375 8.890625 -23.519531 8.890625 -22.40625 C 8.890625 -21.488281 9.113281 -20.703125 9.5625 -20.046875 C 10.007812 -19.390625 10.707031 -18.695312 11.65625 -17.96875 C 12.613281 -17.25 13.878906 -16.347656 15.453125 -15.265625 C 16.566406 -14.492188 17.578125 -13.722656 18.484375 -12.953125 C 19.390625 -12.179688 20.113281 -11.3125 20.65625 -10.34375 C 21.195312 -9.375 21.46875 -8.207031 21.46875 -6.84375 C 21.46875 -5.1875 21.003906 -3.8125 20.078125 -2.71875 C 19.148438 -1.625 17.914062 -0.8125 16.375 -0.28125 C 14.832031 0.25 13.160156 0.515625 11.359375 0.515625 C 9.671875 0.515625 8.320312 0.363281 7.3125 0.0625 C 6.3125 -0.226562 5.460938 -0.535156 4.765625 -0.859375 C 4.210938 -1.203125 3.789062 -1.375 3.5 -1.375 C 3.25 -1.375 3.066406 -1.238281 2.953125 -0.96875 C 2.847656 -0.695312 2.757812 -0.285156 2.6875 0.265625 L 1.828125 0.265625 C 1.867188 -0.378906 1.894531 -1.128906 1.90625 -1.984375 C 1.925781 -2.847656 1.941406 -3.960938 1.953125 -5.328125 C 1.960938 -6.691406 1.96875 -8.425781 1.96875 -10.53125 L 2.828125 -10.53125 C 2.929688 -8.789062 3.210938 -7.164062 3.671875 -5.65625 C 4.128906 -4.144531 4.832031 -2.921875 5.78125 -1.984375 C 6.738281 -1.054688 8.015625 -0.59375 9.609375 -0.59375 C 10.523438 -0.59375 11.3125 -0.734375 11.96875 -1.015625 C 12.625 -1.304688 13.132812 -1.722656 13.5 -2.265625 C 13.875 -2.816406 14.0625 -3.476562 14.0625 -4.25 C 14.0625 -5.289062 13.828125 -6.203125 13.359375 -6.984375 C 12.890625 -7.765625 12.25 -8.492188 11.4375 -9.171875 C 10.632812 -9.859375 9.703125 -10.546875 8.640625 -11.234375 C 7.472656 -12.035156 6.378906 -12.832031 5.359375 -13.625 C 4.335938 -14.414062 3.523438 -15.304688 2.921875 -16.296875 C 2.316406 -17.296875 2.015625 -18.476562 2.015625 -19.84375 C 2.015625 -21.476562 2.445312 -22.8125 3.3125 -23.84375 C 4.175781 -24.875 5.316406 -25.632812 6.734375 -26.125 C 8.148438 -26.625 9.648438 -26.875 11.234375 -26.875 Z M 11.234375 -26.875 "/></g></g></g><g fill="#0a1456" fill-opacity="1"><g transform="translate(213.756591, 315.189618)"><g><path d="M 15.40625 -26.875 C 18.207031 -26.875 20.660156 -26.335938 22.765625 -25.265625 C 24.878906 -24.203125 26.519531 -22.671875 27.6875 -20.671875 C 28.851562 -18.671875 29.4375 -16.25 29.4375 -13.40625 C 29.4375 -10.625 28.835938 -8.191406 27.640625 -6.109375 C 26.453125 -4.023438 24.796875 -2.398438 22.671875 -1.234375 C 20.554688 -0.0664062 18.125 0.515625 15.375 0.515625 C 12.570312 0.515625 10.113281 -0.015625 8 -1.078125 C 5.894531 -2.148438 4.257812 -3.6875 3.09375 -5.6875 C 1.925781 -7.695312 1.34375 -10.117188 1.34375 -12.953125 C 1.34375 -15.734375 1.941406 -18.164062 3.140625 -20.25 C 4.347656 -22.332031 6.003906 -23.957031 8.109375 -25.125 C 10.222656 -26.289062 12.65625 -26.875 15.40625 -26.875 Z M 15.265625 -26.203125 C 14.023438 -26.203125 12.941406 -25.644531 12.015625 -24.53125 C 11.097656 -23.414062 10.390625 -21.875 9.890625 -19.90625 C 9.398438 -17.945312 9.15625 -15.675781 9.15625 -13.09375 C 9.15625 -10.46875 9.441406 -8.179688 10.015625 -6.234375 C 10.585938 -4.285156 11.351562 -2.785156 12.3125 -1.734375 C 13.28125 -0.679688 14.347656 -0.15625 15.515625 -0.15625 C 16.753906 -0.15625 17.832031 -0.710938 18.75 -1.828125 C 19.675781 -2.941406 20.382812 -4.484375 20.875 -6.453125 C 21.375 -8.429688 21.625 -10.695312 21.625 -13.25 C 21.625 -15.90625 21.335938 -18.195312 20.765625 -20.125 C 20.191406 -22.0625 19.421875 -23.554688 18.453125 -24.609375 C 17.492188 -25.671875 16.429688 -26.203125 15.265625 -26.203125 Z M 15.265625 -26.203125 "/></g></g></g><g fill="#0a1456" fill-opacity="1"><g transform="translate(245.457307, 315.189618)"><g><path d="M 34.875 -26.34375 L 34.875 -25.609375 C 34.125 -25.578125 33.554688 -25.476562 33.171875 -25.3125 C 32.796875 -25.15625 32.546875 -24.859375 32.421875 -24.421875 C 32.296875 -23.992188 32.234375 -23.320312 32.234375 -22.40625 L 32.234375 -3.9375 C 32.234375 -3.050781 32.300781 -2.382812 32.4375 -1.9375 C 32.570312 -1.488281 32.820312 -1.1875 33.1875 -1.03125 C 33.5625 -0.882812 34.125 -0.789062 34.875 -0.75 L 34.875 0 C 34.101562 -0.0507812 33.117188 -0.0820312 31.921875 -0.09375 C 30.734375 -0.101562 29.519531 -0.109375 28.28125 -0.109375 C 26.945312 -0.109375 25.6875 -0.101562 24.5 -0.09375 C 23.320312 -0.0820312 22.375 -0.0507812 21.65625 0 L 21.65625 -0.75 C 22.5 -0.789062 23.140625 -0.882812 23.578125 -1.03125 C 24.015625 -1.1875 24.304688 -1.488281 24.453125 -1.9375 C 24.597656 -2.382812 24.671875 -3.050781 24.671875 -3.9375 L 24.671875 -23.859375 L 25.046875 -23.9375 L 15.703125 -0.03125 L 15.109375 -0.03125 L 4.609375 -23.9375 L 4.609375 -7.296875 C 4.609375 -5.628906 4.675781 -4.351562 4.8125 -3.46875 C 4.957031 -2.59375 5.296875 -1.960938 5.828125 -1.578125 C 6.359375 -1.191406 7.207031 -0.914062 8.375 -0.75 L 8.375 0 C 7.875 -0.0507812 7.226562 -0.0820312 6.4375 -0.09375 C 5.644531 -0.101562 4.898438 -0.109375 4.203125 -0.109375 C 3.660156 -0.109375 3.101562 -0.101562 2.53125 -0.09375 C 1.957031 -0.0820312 1.484375 -0.0507812 1.109375 0 L 1.109375 -0.75 C 1.878906 -0.914062 2.453125 -1.175781 2.828125 -1.53125 C 3.203125 -1.894531 3.453125 -2.472656 3.578125 -3.265625 C 3.703125 -4.066406 3.765625 -5.160156 3.765625 -6.546875 L 3.765625 -22.40625 C 3.765625 -23.320312 3.703125 -23.992188 3.578125 -24.421875 C 3.453125 -24.859375 3.195312 -25.15625 2.8125 -25.3125 C 2.425781 -25.476562 1.859375 -25.578125 1.109375 -25.609375 L 1.109375 -26.34375 C 1.484375 -26.320312 1.957031 -26.296875 2.53125 -26.265625 C 3.101562 -26.242188 3.660156 -26.234375 4.203125 -26.234375 C 5.640625 -26.234375 7.015625 -26.242188 8.328125 -26.265625 C 9.648438 -26.296875 10.84375 -26.320312 11.90625 -26.34375 L 19.28125 -9.75 L 18.15625 -8.515625 L 25.046875 -26.234375 C 25.546875 -26.234375 26.078125 -26.234375 26.640625 -26.234375 C 27.210938 -26.234375 27.757812 -26.234375 28.28125 -26.234375 C 29.519531 -26.234375 30.734375 -26.242188 31.921875 -26.265625 C 33.117188 -26.296875 34.101562 -26.320312 34.875 -26.34375 Z M 34.875 -26.34375 "/></g></g></g><g clip-path="url(#5900090d98)"><path fill="#0d1a34" d="M 187.421875 270.699219 L 187.421875 258.59375 L 92.816406 198.308594 L 92.816406 210.410156 Z M 187.421875 185.667969 L 187.421875 197.847656 L 224.878906 173.949219 L 215.382812 167.894531 Z M 187.574219 52.683594 L 187.574219 64.789062 L 282.179688 125.074219 L 282.179688 112.96875 Z M 187.574219 137.714844 L 187.574219 125.535156 L 150.039062 149.433594 L 159.617188 155.484375 L 187.574219 137.714844 " fill-opacity="1" fill-rule="nonzero"/></g><g clip-path="url(#868165aa32)"><path fill="#0a1456" d="M 187.421875 246.414062 L 187.421875 234.234375 L 92.816406 173.949219 L 92.816406 186.125 Z M 187.421875 222.128906 L 243.957031 186.050781 L 234.457031 180 L 187.421875 210.027344 Z M 187.574219 76.96875 L 187.574219 89.148438 L 282.179688 149.433594 L 282.179688 137.253906 Z M 187.574219 101.25 L 130.96875 137.332031 L 140.542969 143.382812 L 187.574219 113.355469 L 187.574219 101.25 " fill-opacity="1" fill-rule="nonzero"/><path fill="#0d1a34" d="M 187.421875 222.128906 L 187.421875 209.953125 L 92.816406 149.664062 L 92.816406 161.84375 Z M 187.421875 246.414062 L 263.109375 198.230469 L 253.53125 192.101562 L 187.421875 234.3125 Z M 187.574219 101.25 L 187.574219 113.429688 L 282.179688 173.71875 L 282.179688 161.539062 Z M 187.574219 76.96875 L 111.890625 125.152344 L 121.390625 131.28125 L 187.574219 89.070312 L 187.574219 76.96875 " fill-opacity="1" fill-rule="nonzero"/></g><g clip-path="url(#a9a4677c6d)"><path fill="#0a1456" d="M 187.421875 197.847656 L 187.421875 185.667969 L 92.816406 125.378906 L 92.816406 137.5625 Z M 187.421875 270.699219 L 282.179688 210.335938 L 272.605469 204.28125 L 187.421875 258.59375 Z M 187.574219 125.535156 L 187.574219 137.714844 L 282.179688 198 L 282.179688 185.820312 Z M 187.574219 52.683594 L 92.816406 113.046875 L 102.316406 119.097656 L 187.574219 64.789062 L 187.574219 52.683594 " fill-opacity="1" fill-rule="nonzero"/></g></svg>